<mxfile host="app.diagrams.net" modified="2022-03-28T14:31:39.248Z" agent="5.0 (Windows NT 10.0; Win64; x64) AppleWebKit/537.36 (KHTML, like Gecko) Chrome/99.0.4844.82 Safari/537.36" etag="L-E0v9hhRvlibV4JDBgs" version="17.1.5" type="github">
  <diagram id="R2lEEEUBdFMjLlhIrx00" name="Page-1">
    <mxGraphModel dx="868" dy="425" grid="0" gridSize="10" guides="1" tooltips="1" connect="1" arrows="1" fold="1" page="1" pageScale="1" pageWidth="1100" pageHeight="850" background="none" math="0" shadow="0" extFonts="Permanent Marker^https://fonts.googleapis.com/css?family=Permanent+Marker">
      <root>
        <mxCell id="0" />
        <mxCell id="1" parent="0" />
        <mxCell id="pWj3Hf8z9nEtYZWXzRSV-18" value="" style="rounded=0;whiteSpace=wrap;html=1;pointerEvents=0;fontFamily=Helvetica;fontSize=12;fontColor=default;strokeColor=default;fillColor=none;" vertex="1" parent="1">
          <mxGeometry x="360" y="220" width="120" height="50" as="geometry" />
        </mxCell>
        <mxCell id="pWj3Hf8z9nEtYZWXzRSV-19" value="penjualan" style="text;html=1;strokeColor=none;fillColor=none;align=center;verticalAlign=middle;whiteSpace=wrap;rounded=0;pointerEvents=0;fontFamily=Helvetica;fontSize=12;fontColor=default;" vertex="1" parent="1">
          <mxGeometry x="385" y="230" width="70" height="30" as="geometry" />
        </mxCell>
        <mxCell id="pWj3Hf8z9nEtYZWXzRSV-26" value="" style="ellipse;whiteSpace=wrap;html=1;pointerEvents=0;fontFamily=Helvetica;fontSize=12;fontColor=default;strokeColor=default;fillColor=none;" vertex="1" parent="1">
          <mxGeometry x="290" y="320" width="80" height="70" as="geometry" />
        </mxCell>
        <mxCell id="pWj3Hf8z9nEtYZWXzRSV-27" value="&lt;u&gt;id_penjualan&lt;/u&gt;" style="text;html=1;strokeColor=none;fillColor=none;align=center;verticalAlign=middle;whiteSpace=wrap;rounded=0;pointerEvents=0;fontFamily=Helvetica;fontSize=12;fontColor=default;" vertex="1" parent="1">
          <mxGeometry x="294.5" y="340" width="71" height="30" as="geometry" />
        </mxCell>
        <mxCell id="pWj3Hf8z9nEtYZWXzRSV-28" value="" style="endArrow=none;html=1;rounded=0;fontFamily=Helvetica;fontSize=12;fontColor=default;entryX=0.417;entryY=-0.012;entryDx=0;entryDy=0;entryPerimeter=0;" edge="1" parent="1" target="pWj3Hf8z9nEtYZWXzRSV-35">
          <mxGeometry width="50" height="50" relative="1" as="geometry">
            <mxPoint x="425" y="270" as="sourcePoint" />
            <mxPoint x="485" y="320" as="targetPoint" />
          </mxGeometry>
        </mxCell>
        <mxCell id="pWj3Hf8z9nEtYZWXzRSV-29" value="" style="ellipse;whiteSpace=wrap;html=1;pointerEvents=0;fontFamily=Helvetica;fontSize=12;fontColor=default;strokeColor=default;fillColor=none;" vertex="1" parent="1">
          <mxGeometry x="385" y="320" width="80" height="70" as="geometry" />
        </mxCell>
        <mxCell id="pWj3Hf8z9nEtYZWXzRSV-30" value="keterangan" style="text;html=1;strokeColor=none;fillColor=none;align=center;verticalAlign=middle;whiteSpace=wrap;rounded=0;pointerEvents=0;fontFamily=Helvetica;fontSize=12;fontColor=default;" vertex="1" parent="1">
          <mxGeometry x="490" y="340" width="60" height="30" as="geometry" />
        </mxCell>
        <mxCell id="pWj3Hf8z9nEtYZWXzRSV-31" value="tanggal" style="text;html=1;strokeColor=none;fillColor=none;align=center;verticalAlign=middle;whiteSpace=wrap;rounded=0;pointerEvents=0;fontFamily=Helvetica;fontSize=12;fontColor=default;" vertex="1" parent="1">
          <mxGeometry x="395" y="340" width="60" height="30" as="geometry" />
        </mxCell>
        <mxCell id="pWj3Hf8z9nEtYZWXzRSV-33" value="" style="endArrow=none;html=1;rounded=0;fontFamily=Helvetica;fontSize=12;fontColor=default;" edge="1" parent="1">
          <mxGeometry width="50" height="50" relative="1" as="geometry">
            <mxPoint x="425" y="320" as="sourcePoint" />
            <mxPoint x="425" y="270" as="targetPoint" />
          </mxGeometry>
        </mxCell>
        <mxCell id="pWj3Hf8z9nEtYZWXzRSV-34" value="" style="endArrow=none;html=1;rounded=0;fontFamily=Helvetica;fontSize=12;fontColor=default;exitX=0.5;exitY=0;exitDx=0;exitDy=0;" edge="1" parent="1" source="pWj3Hf8z9nEtYZWXzRSV-26">
          <mxGeometry width="50" height="50" relative="1" as="geometry">
            <mxPoint x="360" y="300" as="sourcePoint" />
            <mxPoint x="425" y="270" as="targetPoint" />
          </mxGeometry>
        </mxCell>
        <mxCell id="pWj3Hf8z9nEtYZWXzRSV-35" value="" style="ellipse;whiteSpace=wrap;html=1;pointerEvents=0;fontFamily=Helvetica;fontSize=12;fontColor=default;strokeColor=default;fillColor=none;" vertex="1" parent="1">
          <mxGeometry x="480" y="320" width="80" height="70" as="geometry" />
        </mxCell>
        <mxCell id="pWj3Hf8z9nEtYZWXzRSV-41" value="" style="rounded=0;whiteSpace=wrap;html=1;pointerEvents=0;fontFamily=Helvetica;fontSize=12;fontColor=default;strokeColor=default;fillColor=none;" vertex="1" parent="1">
          <mxGeometry x="725" y="440" width="100" height="40" as="geometry" />
        </mxCell>
        <mxCell id="pWj3Hf8z9nEtYZWXzRSV-43" value="pelanggan" style="text;html=1;strokeColor=none;fillColor=none;align=center;verticalAlign=middle;whiteSpace=wrap;rounded=0;pointerEvents=0;fontFamily=Helvetica;fontSize=12;fontColor=default;" vertex="1" parent="1">
          <mxGeometry x="745" y="443" width="60" height="30" as="geometry" />
        </mxCell>
        <mxCell id="pWj3Hf8z9nEtYZWXzRSV-47" value="" style="endArrow=none;html=1;rounded=0;fontFamily=Helvetica;fontSize=12;fontColor=default;entryX=0.5;entryY=0;entryDx=0;entryDy=0;" edge="1" parent="1" target="pWj3Hf8z9nEtYZWXzRSV-52">
          <mxGeometry width="50" height="50" relative="1" as="geometry">
            <mxPoint x="776" y="480" as="sourcePoint" />
            <mxPoint x="951" y="540" as="targetPoint" />
          </mxGeometry>
        </mxCell>
        <mxCell id="pWj3Hf8z9nEtYZWXzRSV-48" value="" style="endArrow=none;html=1;rounded=0;fontFamily=Helvetica;fontSize=12;fontColor=default;" edge="1" parent="1">
          <mxGeometry width="50" height="50" relative="1" as="geometry">
            <mxPoint x="779" y="548" as="sourcePoint" />
            <mxPoint x="775" y="480" as="targetPoint" />
          </mxGeometry>
        </mxCell>
        <mxCell id="pWj3Hf8z9nEtYZWXzRSV-49" value="" style="endArrow=none;html=1;rounded=0;fontFamily=Helvetica;fontSize=12;fontColor=default;exitX=0.5;exitY=0;exitDx=0;exitDy=0;" edge="1" parent="1" source="pWj3Hf8z9nEtYZWXzRSV-56">
          <mxGeometry width="50" height="50" relative="1" as="geometry">
            <mxPoint x="700" y="480" as="sourcePoint" />
            <mxPoint x="774" y="480" as="targetPoint" />
          </mxGeometry>
        </mxCell>
        <mxCell id="pWj3Hf8z9nEtYZWXzRSV-51" value="" style="endArrow=none;html=1;rounded=0;fontFamily=Helvetica;fontSize=12;fontColor=default;" edge="1" parent="1">
          <mxGeometry width="50" height="50" relative="1" as="geometry">
            <mxPoint x="774" y="479" as="sourcePoint" />
            <mxPoint x="880" y="544" as="targetPoint" />
          </mxGeometry>
        </mxCell>
        <mxCell id="pWj3Hf8z9nEtYZWXzRSV-52" value="" style="ellipse;whiteSpace=wrap;html=1;pointerEvents=0;fontFamily=Helvetica;fontSize=12;fontColor=default;strokeColor=default;fillColor=none;" vertex="1" parent="1">
          <mxGeometry x="925" y="539" width="90" height="60" as="geometry" />
        </mxCell>
        <mxCell id="pWj3Hf8z9nEtYZWXzRSV-53" value="&lt;u&gt;id_pelanggan&lt;/u&gt;" style="text;html=1;strokeColor=none;fillColor=none;align=center;verticalAlign=middle;whiteSpace=wrap;rounded=0;pointerEvents=0;fontFamily=Helvetica;fontSize=12;fontColor=default;treeMoving=0;absoluteArcSize=0;" vertex="1" parent="1">
          <mxGeometry x="643" y="559" width="71" height="30" as="geometry" />
        </mxCell>
        <mxCell id="pWj3Hf8z9nEtYZWXzRSV-56" value="" style="ellipse;whiteSpace=wrap;html=1;pointerEvents=0;fontFamily=Helvetica;fontSize=12;fontColor=default;strokeColor=default;fillColor=none;" vertex="1" parent="1">
          <mxGeometry x="630" y="544" width="100" height="60" as="geometry" />
        </mxCell>
        <mxCell id="pWj3Hf8z9nEtYZWXzRSV-57" value="nama_pelanggan" style="text;html=1;strokeColor=none;fillColor=none;align=center;verticalAlign=middle;whiteSpace=wrap;rounded=0;pointerEvents=0;fontFamily=Helvetica;fontSize=12;fontColor=default;" vertex="1" parent="1">
          <mxGeometry x="748" y="563.5" width="71" height="30" as="geometry" />
        </mxCell>
        <mxCell id="pWj3Hf8z9nEtYZWXzRSV-59" value="" style="ellipse;whiteSpace=wrap;html=1;pointerEvents=0;fontFamily=Helvetica;fontSize=12;fontColor=default;strokeColor=default;fillColor=none;" vertex="1" parent="1">
          <mxGeometry x="735" y="549" width="97" height="59" as="geometry" />
        </mxCell>
        <mxCell id="pWj3Hf8z9nEtYZWXzRSV-60" value="domisili" style="text;html=1;strokeColor=none;fillColor=none;align=center;verticalAlign=middle;whiteSpace=wrap;rounded=0;pointerEvents=0;fontFamily=Helvetica;fontSize=12;fontColor=default;" vertex="1" parent="1">
          <mxGeometry x="937" y="554" width="71" height="30" as="geometry" />
        </mxCell>
        <mxCell id="pWj3Hf8z9nEtYZWXzRSV-65" value="" style="ellipse;whiteSpace=wrap;html=1;pointerEvents=0;fontFamily=Helvetica;fontSize=12;fontColor=default;strokeColor=default;fillColor=none;" vertex="1" parent="1">
          <mxGeometry x="846" y="544" width="70" height="50" as="geometry" />
        </mxCell>
        <mxCell id="pWj3Hf8z9nEtYZWXzRSV-67" value="no_hp" style="text;html=1;strokeColor=none;fillColor=none;align=center;verticalAlign=middle;whiteSpace=wrap;rounded=0;pointerEvents=0;fontFamily=Helvetica;fontSize=12;fontColor=default;" vertex="1" parent="1">
          <mxGeometry x="850" y="554" width="71" height="30" as="geometry" />
        </mxCell>
        <mxCell id="pWj3Hf8z9nEtYZWXzRSV-171" style="edgeStyle=orthogonalEdgeStyle;rounded=0;orthogonalLoop=1;jettySize=auto;html=1;exitX=0.5;exitY=0;exitDx=0;exitDy=0;entryX=0;entryY=0.5;entryDx=0;entryDy=0;fontFamily=Helvetica;fontSize=12;fontColor=default;endArrow=ERoneToMany;endFill=0;" edge="1" parent="1" source="pWj3Hf8z9nEtYZWXzRSV-69" target="pWj3Hf8z9nEtYZWXzRSV-103">
          <mxGeometry relative="1" as="geometry" />
        </mxCell>
        <mxCell id="pWj3Hf8z9nEtYZWXzRSV-69" value="" style="rounded=0;whiteSpace=wrap;html=1;pointerEvents=0;fontFamily=Helvetica;fontSize=12;fontColor=default;strokeColor=default;fillColor=none;" vertex="1" parent="1">
          <mxGeometry x="112" y="440" width="100" height="40" as="geometry" />
        </mxCell>
        <mxCell id="pWj3Hf8z9nEtYZWXzRSV-70" value="produk" style="text;html=1;strokeColor=none;fillColor=none;align=center;verticalAlign=middle;whiteSpace=wrap;rounded=0;pointerEvents=0;fontFamily=Helvetica;fontSize=12;fontColor=default;" vertex="1" parent="1">
          <mxGeometry x="123.75" y="445" width="71" height="30" as="geometry" />
        </mxCell>
        <mxCell id="pWj3Hf8z9nEtYZWXzRSV-71" value="" style="endArrow=none;html=1;rounded=0;fontFamily=Helvetica;fontSize=12;fontColor=default;exitX=0.5;exitY=0;exitDx=0;exitDy=0;entryX=0.5;entryY=1;entryDx=0;entryDy=0;" edge="1" parent="1" source="pWj3Hf8z9nEtYZWXzRSV-74" target="pWj3Hf8z9nEtYZWXzRSV-69">
          <mxGeometry width="50" height="50" relative="1" as="geometry">
            <mxPoint y="480" as="sourcePoint" />
            <mxPoint x="50" y="430" as="targetPoint" />
          </mxGeometry>
        </mxCell>
        <mxCell id="pWj3Hf8z9nEtYZWXzRSV-74" value="" style="ellipse;whiteSpace=wrap;html=1;pointerEvents=0;fontFamily=Helvetica;fontSize=12;fontColor=default;strokeColor=default;fillColor=none;" vertex="1" parent="1">
          <mxGeometry x="25" y="539" width="87" height="51" as="geometry" />
        </mxCell>
        <mxCell id="pWj3Hf8z9nEtYZWXzRSV-75" value="" style="endArrow=none;html=1;rounded=0;fontFamily=Helvetica;fontSize=12;fontColor=default;" edge="1" parent="1">
          <mxGeometry width="50" height="50" relative="1" as="geometry">
            <mxPoint x="161.5" y="539" as="sourcePoint" />
            <mxPoint x="161.5" y="481" as="targetPoint" />
          </mxGeometry>
        </mxCell>
        <mxCell id="pWj3Hf8z9nEtYZWXzRSV-76" value="&lt;u&gt;id_produk&lt;/u&gt;" style="text;html=1;strokeColor=none;fillColor=none;align=center;verticalAlign=middle;whiteSpace=wrap;rounded=0;pointerEvents=0;fontFamily=Helvetica;fontSize=12;fontColor=default;" vertex="1" parent="1">
          <mxGeometry x="30" y="549.5" width="71" height="30" as="geometry" />
        </mxCell>
        <mxCell id="pWj3Hf8z9nEtYZWXzRSV-77" value="" style="ellipse;whiteSpace=wrap;html=1;pointerEvents=0;fontFamily=Helvetica;fontSize=12;fontColor=default;strokeColor=default;fillColor=none;" vertex="1" parent="1">
          <mxGeometry x="119.5" y="539" width="79.5" height="50" as="geometry" />
        </mxCell>
        <mxCell id="pWj3Hf8z9nEtYZWXzRSV-79" value="nama_produk" style="text;html=1;strokeColor=none;fillColor=none;align=center;verticalAlign=middle;whiteSpace=wrap;rounded=0;pointerEvents=0;fontFamily=Helvetica;fontSize=12;fontColor=default;" vertex="1" parent="1">
          <mxGeometry x="123.75" y="549" width="71" height="30" as="geometry" />
        </mxCell>
        <mxCell id="pWj3Hf8z9nEtYZWXzRSV-81" value="" style="ellipse;whiteSpace=wrap;html=1;pointerEvents=0;fontFamily=Helvetica;fontSize=12;fontColor=default;strokeColor=default;fillColor=none;" vertex="1" parent="1">
          <mxGeometry x="204.5" y="539" width="90" height="50" as="geometry" />
        </mxCell>
        <mxCell id="pWj3Hf8z9nEtYZWXzRSV-82" value="harga_produk" style="text;html=1;strokeColor=none;fillColor=none;align=center;verticalAlign=middle;whiteSpace=wrap;rounded=0;pointerEvents=0;fontFamily=Helvetica;fontSize=12;fontColor=default;" vertex="1" parent="1">
          <mxGeometry x="214" y="549" width="71" height="30" as="geometry" />
        </mxCell>
        <mxCell id="pWj3Hf8z9nEtYZWXzRSV-93" style="edgeStyle=orthogonalEdgeStyle;rounded=0;orthogonalLoop=1;jettySize=auto;html=1;exitX=1;exitY=0.5;exitDx=0;exitDy=0;fontFamily=Helvetica;fontSize=12;fontColor=default;endArrow=baseDash;endFill=0;entryX=0;entryY=0.5;entryDx=0;entryDy=0;" edge="1" parent="1" source="pWj3Hf8z9nEtYZWXzRSV-90" target="pWj3Hf8z9nEtYZWXzRSV-41">
          <mxGeometry relative="1" as="geometry">
            <mxPoint x="684" y="415" as="targetPoint" />
            <Array as="points">
              <mxPoint x="712" y="460" />
              <mxPoint x="712" y="460" />
            </Array>
          </mxGeometry>
        </mxCell>
        <mxCell id="pWj3Hf8z9nEtYZWXzRSV-170" style="edgeStyle=orthogonalEdgeStyle;rounded=0;orthogonalLoop=1;jettySize=auto;html=1;exitX=0;exitY=0.5;exitDx=0;exitDy=0;entryX=1;entryY=0.5;entryDx=0;entryDy=0;fontFamily=Helvetica;fontSize=12;fontColor=default;endArrow=ERoneToMany;endFill=0;" edge="1" parent="1" source="pWj3Hf8z9nEtYZWXzRSV-90" target="pWj3Hf8z9nEtYZWXzRSV-69">
          <mxGeometry relative="1" as="geometry" />
        </mxCell>
        <mxCell id="pWj3Hf8z9nEtYZWXzRSV-90" value="" style="rhombus;whiteSpace=wrap;html=1;pointerEvents=0;fontFamily=Helvetica;fontSize=12;fontColor=default;strokeColor=default;fillColor=none;" vertex="1" parent="1">
          <mxGeometry x="372" y="430" width="110" height="60" as="geometry" />
        </mxCell>
        <mxCell id="pWj3Hf8z9nEtYZWXzRSV-91" value="membeli" style="text;html=1;strokeColor=none;fillColor=none;align=center;verticalAlign=middle;whiteSpace=wrap;rounded=0;pointerEvents=0;fontFamily=Helvetica;fontSize=12;fontColor=default;" vertex="1" parent="1">
          <mxGeometry x="389.5" y="445" width="71" height="30" as="geometry" />
        </mxCell>
        <mxCell id="pWj3Hf8z9nEtYZWXzRSV-97" value="" style="endArrow=none;html=1;rounded=0;fontFamily=Helvetica;fontSize=12;fontColor=default;" edge="1" parent="1">
          <mxGeometry width="50" height="50" relative="1" as="geometry">
            <mxPoint x="469" y="526" as="sourcePoint" />
            <mxPoint x="427.5" y="490" as="targetPoint" />
          </mxGeometry>
        </mxCell>
        <mxCell id="pWj3Hf8z9nEtYZWXzRSV-98" value="" style="ellipse;whiteSpace=wrap;html=1;pointerEvents=0;fontFamily=Helvetica;fontSize=12;fontColor=default;strokeColor=default;fillColor=none;" vertex="1" parent="1">
          <mxGeometry x="433" y="527" width="82" height="55" as="geometry" />
        </mxCell>
        <mxCell id="pWj3Hf8z9nEtYZWXzRSV-100" value="" style="shape=link;html=1;rounded=0;fontFamily=Helvetica;fontSize=12;fontColor=default;endArrow=ERoneToMany;endFill=0;" edge="1" parent="1">
          <mxGeometry width="100" relative="1" as="geometry">
            <mxPoint x="446.5" y="564" as="sourcePoint" />
            <mxPoint x="501.5" y="564.5" as="targetPoint" />
          </mxGeometry>
        </mxCell>
        <mxCell id="pWj3Hf8z9nEtYZWXzRSV-101" value="id_pelanggan" style="text;html=1;strokeColor=none;fillColor=none;align=center;verticalAlign=middle;whiteSpace=wrap;rounded=0;pointerEvents=0;fontFamily=Helvetica;fontSize=12;fontColor=default;" vertex="1" parent="1">
          <mxGeometry x="438.5" y="533.5" width="71" height="30" as="geometry" />
        </mxCell>
        <mxCell id="pWj3Hf8z9nEtYZWXzRSV-110" style="edgeStyle=orthogonalEdgeStyle;rounded=0;orthogonalLoop=1;jettySize=auto;html=1;entryX=0;entryY=0.5;entryDx=0;entryDy=0;fontFamily=Helvetica;fontSize=12;fontColor=default;endArrow=ERoneToMany;endFill=0;exitX=1;exitY=0.5;exitDx=0;exitDy=0;" edge="1" parent="1" source="pWj3Hf8z9nEtYZWXzRSV-103" target="pWj3Hf8z9nEtYZWXzRSV-18">
          <mxGeometry relative="1" as="geometry">
            <mxPoint x="249" y="245" as="sourcePoint" />
          </mxGeometry>
        </mxCell>
        <mxCell id="pWj3Hf8z9nEtYZWXzRSV-103" value="" style="rhombus;whiteSpace=wrap;html=1;pointerEvents=0;fontFamily=Helvetica;fontSize=12;fontColor=default;strokeColor=default;fillColor=none;" vertex="1" parent="1">
          <mxGeometry x="187.75" y="220" width="93.5" height="50" as="geometry" />
        </mxCell>
        <mxCell id="pWj3Hf8z9nEtYZWXzRSV-106" value="memiliki" style="text;html=1;strokeColor=none;fillColor=none;align=center;verticalAlign=middle;whiteSpace=wrap;rounded=0;pointerEvents=0;fontFamily=Helvetica;fontSize=12;fontColor=default;" vertex="1" parent="1">
          <mxGeometry x="199" y="230" width="71" height="30" as="geometry" />
        </mxCell>
        <mxCell id="pWj3Hf8z9nEtYZWXzRSV-133" style="edgeStyle=orthogonalEdgeStyle;rounded=0;orthogonalLoop=1;jettySize=auto;html=1;exitX=0;exitY=0.5;exitDx=0;exitDy=0;entryX=1;entryY=0.5;entryDx=0;entryDy=0;fontFamily=Helvetica;fontSize=12;fontColor=default;endArrow=baseDash;endFill=0;" edge="1" parent="1" source="pWj3Hf8z9nEtYZWXzRSV-111" target="pWj3Hf8z9nEtYZWXzRSV-131">
          <mxGeometry relative="1" as="geometry" />
        </mxCell>
        <mxCell id="pWj3Hf8z9nEtYZWXzRSV-111" value="Kasir" style="rounded=0;whiteSpace=wrap;html=1;pointerEvents=0;fontFamily=Helvetica;fontSize=12;fontColor=default;strokeColor=default;fillColor=none;" vertex="1" parent="1">
          <mxGeometry x="640" y="120" width="70" height="40" as="geometry" />
        </mxCell>
        <mxCell id="pWj3Hf8z9nEtYZWXzRSV-112" value="" style="endArrow=none;html=1;rounded=0;fontFamily=Helvetica;fontSize=12;fontColor=default;" edge="1" parent="1">
          <mxGeometry width="50" height="50" relative="1" as="geometry">
            <mxPoint x="675.5" y="120" as="sourcePoint" />
            <mxPoint x="600" y="80" as="targetPoint" />
          </mxGeometry>
        </mxCell>
        <mxCell id="pWj3Hf8z9nEtYZWXzRSV-113" value="" style="ellipse;whiteSpace=wrap;html=1;pointerEvents=0;fontFamily=Helvetica;fontSize=12;fontColor=default;strokeColor=default;fillColor=none;" vertex="1" parent="1">
          <mxGeometry x="569.5" y="40" width="70.5" height="40" as="geometry" />
        </mxCell>
        <mxCell id="pWj3Hf8z9nEtYZWXzRSV-116" value="id_kasir" style="text;html=1;strokeColor=none;fillColor=none;align=center;verticalAlign=middle;whiteSpace=wrap;rounded=0;pointerEvents=0;fontFamily=Helvetica;fontSize=12;fontColor=default;" vertex="1" parent="1">
          <mxGeometry x="569" y="45" width="71" height="30" as="geometry" />
        </mxCell>
        <mxCell id="pWj3Hf8z9nEtYZWXzRSV-117" value="" style="endArrow=none;html=1;rounded=0;fontFamily=Helvetica;fontSize=12;fontColor=default;entryX=0.5;entryY=1;entryDx=0;entryDy=0;" edge="1" parent="1" target="pWj3Hf8z9nEtYZWXzRSV-126">
          <mxGeometry width="50" height="50" relative="1" as="geometry">
            <mxPoint x="675" y="120" as="sourcePoint" />
            <mxPoint x="750" y="80" as="targetPoint" />
          </mxGeometry>
        </mxCell>
        <mxCell id="pWj3Hf8z9nEtYZWXzRSV-118" value="" style="endArrow=none;html=1;rounded=0;fontFamily=Helvetica;fontSize=12;fontColor=default;entryX=0.4;entryY=1;entryDx=0;entryDy=0;entryPerimeter=0;" edge="1" parent="1" target="pWj3Hf8z9nEtYZWXzRSV-122">
          <mxGeometry width="50" height="50" relative="1" as="geometry">
            <mxPoint x="675.5" y="120" as="sourcePoint" />
            <mxPoint x="676" y="80" as="targetPoint" />
          </mxGeometry>
        </mxCell>
        <mxCell id="pWj3Hf8z9nEtYZWXzRSV-122" value="" style="ellipse;whiteSpace=wrap;html=1;pointerEvents=0;fontFamily=Helvetica;fontSize=12;fontColor=default;strokeColor=default;fillColor=none;" vertex="1" parent="1">
          <mxGeometry x="650" y="40" width="70" height="40" as="geometry" />
        </mxCell>
        <mxCell id="pWj3Hf8z9nEtYZWXzRSV-125" value="nama_kasir" style="text;html=1;strokeColor=none;fillColor=none;align=center;verticalAlign=middle;whiteSpace=wrap;rounded=0;pointerEvents=0;fontFamily=Helvetica;fontSize=12;fontColor=default;" vertex="1" parent="1">
          <mxGeometry x="650" y="45" width="71" height="30" as="geometry" />
        </mxCell>
        <mxCell id="pWj3Hf8z9nEtYZWXzRSV-126" value="" style="ellipse;whiteSpace=wrap;html=1;pointerEvents=0;fontFamily=Helvetica;fontSize=12;fontColor=default;strokeColor=default;fillColor=none;" vertex="1" parent="1">
          <mxGeometry x="730" y="40" width="70" height="40" as="geometry" />
        </mxCell>
        <mxCell id="pWj3Hf8z9nEtYZWXzRSV-127" value="status_kasir" style="text;html=1;strokeColor=none;fillColor=none;align=center;verticalAlign=middle;whiteSpace=wrap;rounded=0;pointerEvents=0;fontFamily=Helvetica;fontSize=12;fontColor=default;" vertex="1" parent="1">
          <mxGeometry x="730" y="45" width="71" height="30" as="geometry" />
        </mxCell>
        <mxCell id="pWj3Hf8z9nEtYZWXzRSV-134" style="edgeStyle=orthogonalEdgeStyle;rounded=0;orthogonalLoop=1;jettySize=auto;html=1;exitX=0;exitY=0.5;exitDx=0;exitDy=0;entryX=0.5;entryY=0;entryDx=0;entryDy=0;fontFamily=Helvetica;fontSize=12;fontColor=default;endArrow=ERoneToMany;endFill=0;" edge="1" parent="1" source="pWj3Hf8z9nEtYZWXzRSV-131" target="pWj3Hf8z9nEtYZWXzRSV-18">
          <mxGeometry relative="1" as="geometry" />
        </mxCell>
        <mxCell id="pWj3Hf8z9nEtYZWXzRSV-131" value="" style="rhombus;whiteSpace=wrap;html=1;pointerEvents=0;fontFamily=Helvetica;fontSize=12;fontColor=default;strokeColor=default;fillColor=none;" vertex="1" parent="1">
          <mxGeometry x="480" y="115" width="89.5" height="50" as="geometry" />
        </mxCell>
        <mxCell id="pWj3Hf8z9nEtYZWXzRSV-132" value="melakukan" style="text;html=1;strokeColor=none;fillColor=none;align=center;verticalAlign=middle;whiteSpace=wrap;rounded=0;pointerEvents=0;fontFamily=Helvetica;fontSize=12;fontColor=default;" vertex="1" parent="1">
          <mxGeometry x="490" y="125" width="71" height="30" as="geometry" />
        </mxCell>
        <mxCell id="pWj3Hf8z9nEtYZWXzRSV-147" value="" style="endArrow=none;html=1;rounded=0;fontFamily=Helvetica;fontSize=12;fontColor=default;entryX=0.5;entryY=1;entryDx=0;entryDy=0;exitX=0.5;exitY=0;exitDx=0;exitDy=0;" edge="1" parent="1" source="pWj3Hf8z9nEtYZWXzRSV-81" target="pWj3Hf8z9nEtYZWXzRSV-69">
          <mxGeometry width="50" height="50" relative="1" as="geometry">
            <mxPoint x="167" y="494" as="sourcePoint" />
            <mxPoint x="217" y="444" as="targetPoint" />
          </mxGeometry>
        </mxCell>
        <mxCell id="pWj3Hf8z9nEtYZWXzRSV-148" value="Nama&lt;span style=&quot;white-space: pre&quot;&gt;	&lt;/span&gt;: Azizah Fatma Sunardi&lt;br&gt;&lt;div style=&quot;text-align: left&quot;&gt;&lt;span&gt;NIM&lt;span style=&quot;white-space: pre&quot;&gt;	&lt;/span&gt;&lt;span style=&quot;white-space: pre&quot;&gt;	&lt;/span&gt;: 0110121212&lt;/span&gt;&lt;/div&gt;&lt;div style=&quot;text-align: left&quot;&gt;&lt;span&gt;Rombel&lt;span style=&quot;white-space: pre&quot;&gt;	&lt;/span&gt;: SI10&lt;/span&gt;&lt;/div&gt;&lt;div style=&quot;text-align: left&quot;&gt;&lt;span&gt;&amp;nbsp;&lt;/span&gt;&lt;/div&gt;" style="text;html=1;strokeColor=none;fillColor=none;align=center;verticalAlign=middle;whiteSpace=wrap;rounded=0;pointerEvents=0;fontFamily=Helvetica;fontSize=12;fontColor=default;" vertex="1" parent="1">
          <mxGeometry x="7" y="9" width="232" height="111" as="geometry" />
        </mxCell>
      </root>
    </mxGraphModel>
  </diagram>
</mxfile>
